<mxfile host="Electron" modified="2024-06-17T12:37:39.333Z" agent="Mozilla/5.0 (Windows NT 10.0; Win64; x64) AppleWebKit/537.36 (KHTML, like Gecko) draw.io/24.5.3 Chrome/124.0.6367.207 Electron/30.0.6 Safari/537.36" etag="FKL2TFeyF-h2nBl8myAm" version="24.5.3" type="device" pages="3">
  <diagram name="TimerCondition" id="L7_bqHHO9kC5WA96JviK">
    <mxGraphModel dx="1434" dy="844" grid="1" gridSize="10" guides="1" tooltips="1" connect="1" arrows="1" fold="1" page="1" pageScale="1" pageWidth="827" pageHeight="1169" math="0" shadow="0">
      <root>
        <mxCell id="0" />
        <mxCell id="1" parent="0" />
        <mxCell id="tyDK1rfAqaSJP7Ka55a6-1" style="edgeStyle=orthogonalEdgeStyle;rounded=0;orthogonalLoop=1;jettySize=auto;html=1;exitX=0.5;exitY=1;exitDx=0;exitDy=0;entryX=0.5;entryY=0;entryDx=0;entryDy=0;" edge="1" parent="1" source="tyDK1rfAqaSJP7Ka55a6-2" target="tyDK1rfAqaSJP7Ka55a6-4">
          <mxGeometry relative="1" as="geometry" />
        </mxCell>
        <mxCell id="tyDK1rfAqaSJP7Ka55a6-2" value="EventsRunner.RunSequence()" style="rounded=1;whiteSpace=wrap;html=1;" vertex="1" parent="1">
          <mxGeometry x="95" y="50" width="180" height="40" as="geometry" />
        </mxCell>
        <mxCell id="tyDK1rfAqaSJP7Ka55a6-3" style="edgeStyle=orthogonalEdgeStyle;rounded=0;orthogonalLoop=1;jettySize=auto;html=1;exitX=0.5;exitY=1;exitDx=0;exitDy=0;entryX=0.5;entryY=0;entryDx=0;entryDy=0;" edge="1" parent="1" source="tyDK1rfAqaSJP7Ka55a6-4" target="tyDK1rfAqaSJP7Ka55a6-6">
          <mxGeometry relative="1" as="geometry" />
        </mxCell>
        <mxCell id="tyDK1rfAqaSJP7Ka55a6-4" value="TimerCondition.Run()" style="rounded=1;whiteSpace=wrap;html=1;" vertex="1" parent="1">
          <mxGeometry x="95" y="130" width="180" height="40" as="geometry" />
        </mxCell>
        <mxCell id="tyDK1rfAqaSJP7Ka55a6-5" style="edgeStyle=orthogonalEdgeStyle;rounded=0;orthogonalLoop=1;jettySize=auto;html=1;exitX=0.5;exitY=1;exitDx=0;exitDy=0;entryX=0.5;entryY=0;entryDx=0;entryDy=0;" edge="1" parent="1" source="tyDK1rfAqaSJP7Ka55a6-6" target="tyDK1rfAqaSJP7Ka55a6-9">
          <mxGeometry relative="1" as="geometry" />
        </mxCell>
        <mxCell id="tyDK1rfAqaSJP7Ka55a6-6" value="ConditionEvaluator.&lt;div&gt;EvaluateTimerCondition(TimerCondition)&lt;/div&gt;" style="rounded=1;whiteSpace=wrap;html=1;" vertex="1" parent="1">
          <mxGeometry x="57.5" y="210" width="255" height="40" as="geometry" />
        </mxCell>
        <mxCell id="tyDK1rfAqaSJP7Ka55a6-7" style="edgeStyle=orthogonalEdgeStyle;rounded=0;orthogonalLoop=1;jettySize=auto;html=1;exitX=0.5;exitY=1;exitDx=0;exitDy=0;entryX=0.5;entryY=0;entryDx=0;entryDy=0;" edge="1" parent="1" source="tyDK1rfAqaSJP7Ka55a6-9" target="tyDK1rfAqaSJP7Ka55a6-12">
          <mxGeometry relative="1" as="geometry" />
        </mxCell>
        <mxCell id="tyDK1rfAqaSJP7Ka55a6-8" style="edgeStyle=orthogonalEdgeStyle;rounded=0;orthogonalLoop=1;jettySize=auto;html=1;exitX=1;exitY=0.5;exitDx=0;exitDy=0;entryX=0;entryY=0.5;entryDx=0;entryDy=0;" edge="1" parent="1" source="tyDK1rfAqaSJP7Ka55a6-9" target="tyDK1rfAqaSJP7Ka55a6-15">
          <mxGeometry relative="1" as="geometry" />
        </mxCell>
        <mxCell id="tyDK1rfAqaSJP7Ka55a6-9" value="Is the first member a int ?" style="rhombus;whiteSpace=wrap;html=1;" vertex="1" parent="1">
          <mxGeometry x="145" y="300" width="80" height="80" as="geometry" />
        </mxCell>
        <mxCell id="tyDK1rfAqaSJP7Ka55a6-10" style="edgeStyle=orthogonalEdgeStyle;rounded=0;orthogonalLoop=1;jettySize=auto;html=1;exitX=1;exitY=0.5;exitDx=0;exitDy=0;entryX=0;entryY=0.5;entryDx=0;entryDy=0;" edge="1" parent="1" source="tyDK1rfAqaSJP7Ka55a6-12" target="tyDK1rfAqaSJP7Ka55a6-39">
          <mxGeometry relative="1" as="geometry" />
        </mxCell>
        <mxCell id="tyDK1rfAqaSJP7Ka55a6-11" style="edgeStyle=orthogonalEdgeStyle;rounded=0;orthogonalLoop=1;jettySize=auto;html=1;exitX=0.5;exitY=1;exitDx=0;exitDy=0;entryX=0.5;entryY=0;entryDx=0;entryDy=0;" edge="1" parent="1" source="tyDK1rfAqaSJP7Ka55a6-12" target="tyDK1rfAqaSJP7Ka55a6-43">
          <mxGeometry relative="1" as="geometry" />
        </mxCell>
        <mxCell id="tyDK1rfAqaSJP7Ka55a6-12" value="Is the second member a int ?" style="rhombus;whiteSpace=wrap;html=1;" vertex="1" parent="1">
          <mxGeometry x="145" y="420" width="80" height="80" as="geometry" />
        </mxCell>
        <mxCell id="tyDK1rfAqaSJP7Ka55a6-13" value="No" style="text;html=1;align=center;verticalAlign=middle;whiteSpace=wrap;rounded=0;" vertex="1" parent="1">
          <mxGeometry x="140" y="380" width="60" height="30" as="geometry" />
        </mxCell>
        <mxCell id="tyDK1rfAqaSJP7Ka55a6-14" style="edgeStyle=orthogonalEdgeStyle;rounded=0;orthogonalLoop=1;jettySize=auto;html=1;exitX=0.5;exitY=1;exitDx=0;exitDy=0;entryX=0.5;entryY=0;entryDx=0;entryDy=0;" edge="1" parent="1" source="tyDK1rfAqaSJP7Ka55a6-15" target="tyDK1rfAqaSJP7Ka55a6-19">
          <mxGeometry relative="1" as="geometry" />
        </mxCell>
        <mxCell id="tyDK1rfAqaSJP7Ka55a6-15" value="EvaluateMembers&lt;div&gt;(firstMember)&lt;/div&gt;" style="rounded=1;whiteSpace=wrap;html=1;" vertex="1" parent="1">
          <mxGeometry x="480" y="320" width="125" height="40" as="geometry" />
        </mxCell>
        <mxCell id="tyDK1rfAqaSJP7Ka55a6-16" value="Yes" style="text;html=1;align=center;verticalAlign=middle;whiteSpace=wrap;rounded=0;" vertex="1" parent="1">
          <mxGeometry x="225" y="310" width="60" height="30" as="geometry" />
        </mxCell>
        <mxCell id="tyDK1rfAqaSJP7Ka55a6-17" style="edgeStyle=orthogonalEdgeStyle;rounded=0;orthogonalLoop=1;jettySize=auto;html=1;exitX=0.5;exitY=1;exitDx=0;exitDy=0;entryX=0.5;entryY=0;entryDx=0;entryDy=0;" edge="1" parent="1" source="tyDK1rfAqaSJP7Ka55a6-19" target="tyDK1rfAqaSJP7Ka55a6-21">
          <mxGeometry relative="1" as="geometry" />
        </mxCell>
        <mxCell id="tyDK1rfAqaSJP7Ka55a6-18" style="edgeStyle=orthogonalEdgeStyle;rounded=0;orthogonalLoop=1;jettySize=auto;html=1;exitX=1;exitY=0.5;exitDx=0;exitDy=0;entryX=0;entryY=0.5;entryDx=0;entryDy=0;" edge="1" parent="1" source="tyDK1rfAqaSJP7Ka55a6-19" target="tyDK1rfAqaSJP7Ka55a6-24">
          <mxGeometry relative="1" as="geometry" />
        </mxCell>
        <mxCell id="tyDK1rfAqaSJP7Ka55a6-19" value="Does the member exist in timer manager ?" style="rhombus;whiteSpace=wrap;html=1;" vertex="1" parent="1">
          <mxGeometry x="468.75" y="420" width="147.5" height="80" as="geometry" />
        </mxCell>
        <mxCell id="tyDK1rfAqaSJP7Ka55a6-20" style="edgeStyle=orthogonalEdgeStyle;rounded=0;orthogonalLoop=1;jettySize=auto;html=1;exitX=0.5;exitY=1;exitDx=0;exitDy=0;entryX=0.5;entryY=0;entryDx=0;entryDy=0;" edge="1" parent="1" source="tyDK1rfAqaSJP7Ka55a6-21" target="tyDK1rfAqaSJP7Ka55a6-68">
          <mxGeometry relative="1" as="geometry">
            <mxPoint x="542.5" y="1090" as="targetPoint" />
          </mxGeometry>
        </mxCell>
        <mxCell id="tyDK1rfAqaSJP7Ka55a6-21" value="return false" style="rounded=1;whiteSpace=wrap;html=1;" vertex="1" parent="1">
          <mxGeometry x="480" y="760" width="125" height="40" as="geometry" />
        </mxCell>
        <mxCell id="tyDK1rfAqaSJP7Ka55a6-22" value="No" style="text;html=1;align=center;verticalAlign=middle;whiteSpace=wrap;rounded=0;" vertex="1" parent="1">
          <mxGeometry x="490" y="500" width="60" height="30" as="geometry" />
        </mxCell>
        <mxCell id="tyDK1rfAqaSJP7Ka55a6-23" style="edgeStyle=orthogonalEdgeStyle;rounded=0;orthogonalLoop=1;jettySize=auto;html=1;exitX=0.5;exitY=1;exitDx=0;exitDy=0;entryX=0.5;entryY=0;entryDx=0;entryDy=0;" edge="1" parent="1" source="tyDK1rfAqaSJP7Ka55a6-24" target="tyDK1rfAqaSJP7Ka55a6-28">
          <mxGeometry relative="1" as="geometry" />
        </mxCell>
        <mxCell id="tyDK1rfAqaSJP7Ka55a6-24" value="TimersManager.&lt;div&gt;GetTimer(member)&lt;/div&gt;" style="rounded=1;whiteSpace=wrap;html=1;" vertex="1" parent="1">
          <mxGeometry x="690" y="440" width="125" height="40" as="geometry" />
        </mxCell>
        <mxCell id="tyDK1rfAqaSJP7Ka55a6-25" value="Yes" style="text;html=1;align=center;verticalAlign=middle;whiteSpace=wrap;rounded=0;" vertex="1" parent="1">
          <mxGeometry x="605" y="430" width="60" height="30" as="geometry" />
        </mxCell>
        <mxCell id="tyDK1rfAqaSJP7Ka55a6-26" style="edgeStyle=orthogonalEdgeStyle;rounded=0;orthogonalLoop=1;jettySize=auto;html=1;exitX=0.5;exitY=1;exitDx=0;exitDy=0;entryX=0.5;entryY=0;entryDx=0;entryDy=0;" edge="1" parent="1" source="tyDK1rfAqaSJP7Ka55a6-28" target="tyDK1rfAqaSJP7Ka55a6-31">
          <mxGeometry relative="1" as="geometry" />
        </mxCell>
        <mxCell id="tyDK1rfAqaSJP7Ka55a6-27" style="edgeStyle=orthogonalEdgeStyle;rounded=0;orthogonalLoop=1;jettySize=auto;html=1;exitX=1;exitY=0.5;exitDx=0;exitDy=0;entryX=0;entryY=0.5;entryDx=0;entryDy=0;" edge="1" parent="1" source="tyDK1rfAqaSJP7Ka55a6-28" target="tyDK1rfAqaSJP7Ka55a6-35">
          <mxGeometry relative="1" as="geometry" />
        </mxCell>
        <mxCell id="tyDK1rfAqaSJP7Ka55a6-28" value="Condition is &#39;Before&#39; ?" style="rhombus;whiteSpace=wrap;html=1;" vertex="1" parent="1">
          <mxGeometry x="712.5" y="525" width="80" height="80" as="geometry" />
        </mxCell>
        <mxCell id="tyDK1rfAqaSJP7Ka55a6-29" style="edgeStyle=orthogonalEdgeStyle;rounded=0;orthogonalLoop=1;jettySize=auto;html=1;exitX=0.5;exitY=1;exitDx=0;exitDy=0;entryX=1;entryY=0.5;entryDx=0;entryDy=0;" edge="1" parent="1" source="tyDK1rfAqaSJP7Ka55a6-31" target="tyDK1rfAqaSJP7Ka55a6-21">
          <mxGeometry relative="1" as="geometry" />
        </mxCell>
        <mxCell id="tyDK1rfAqaSJP7Ka55a6-30" style="edgeStyle=orthogonalEdgeStyle;rounded=0;orthogonalLoop=1;jettySize=auto;html=1;exitX=1;exitY=0.5;exitDx=0;exitDy=0;entryX=0;entryY=0.5;entryDx=0;entryDy=0;" edge="1" parent="1" source="tyDK1rfAqaSJP7Ka55a6-31">
          <mxGeometry relative="1" as="geometry">
            <mxPoint x="860" y="690" as="targetPoint" />
          </mxGeometry>
        </mxCell>
        <mxCell id="tyDK1rfAqaSJP7Ka55a6-31" value="Condition is &#39;After&#39; ?" style="rhombus;whiteSpace=wrap;html=1;" vertex="1" parent="1">
          <mxGeometry x="712.5" y="650" width="80" height="80" as="geometry" />
        </mxCell>
        <mxCell id="tyDK1rfAqaSJP7Ka55a6-32" value="No" style="text;html=1;align=center;verticalAlign=middle;whiteSpace=wrap;rounded=0;" vertex="1" parent="1">
          <mxGeometry x="710" y="605" width="60" height="30" as="geometry" />
        </mxCell>
        <mxCell id="tyDK1rfAqaSJP7Ka55a6-33" value="No" style="text;html=1;align=center;verticalAlign=middle;whiteSpace=wrap;rounded=0;" vertex="1" parent="1">
          <mxGeometry x="710" y="730" width="60" height="30" as="geometry" />
        </mxCell>
        <mxCell id="tyDK1rfAqaSJP7Ka55a6-34" style="edgeStyle=orthogonalEdgeStyle;rounded=0;orthogonalLoop=1;jettySize=auto;html=1;exitX=1;exitY=0.5;exitDx=0;exitDy=0;entryX=1;entryY=0.5;entryDx=0;entryDy=0;" edge="1" parent="1" source="tyDK1rfAqaSJP7Ka55a6-35">
          <mxGeometry relative="1" as="geometry">
            <mxPoint x="632.5" y="1110" as="targetPoint" />
          </mxGeometry>
        </mxCell>
        <mxCell id="tyDK1rfAqaSJP7Ka55a6-35" value="return timer.CurrentTime &amp;lt; threshold" style="rounded=1;whiteSpace=wrap;html=1;" vertex="1" parent="1">
          <mxGeometry x="860" y="545" width="190" height="40" as="geometry" />
        </mxCell>
        <mxCell id="tyDK1rfAqaSJP7Ka55a6-36" value="Yes" style="text;html=1;align=center;verticalAlign=middle;whiteSpace=wrap;rounded=0;" vertex="1" parent="1">
          <mxGeometry x="780" y="540" width="60" height="30" as="geometry" />
        </mxCell>
        <mxCell id="tyDK1rfAqaSJP7Ka55a6-37" value="Yes" style="text;html=1;align=center;verticalAlign=middle;whiteSpace=wrap;rounded=0;" vertex="1" parent="1">
          <mxGeometry x="780" y="660" width="60" height="30" as="geometry" />
        </mxCell>
        <mxCell id="tyDK1rfAqaSJP7Ka55a6-38" style="edgeStyle=orthogonalEdgeStyle;rounded=0;orthogonalLoop=1;jettySize=auto;html=1;exitX=1;exitY=0.5;exitDx=0;exitDy=0;entryX=0;entryY=0.5;entryDx=0;entryDy=0;" edge="1" parent="1" source="tyDK1rfAqaSJP7Ka55a6-39" target="tyDK1rfAqaSJP7Ka55a6-19">
          <mxGeometry relative="1" as="geometry" />
        </mxCell>
        <mxCell id="tyDK1rfAqaSJP7Ka55a6-39" value="EvaluateMembers&lt;div&gt;(secondMember)&lt;/div&gt;" style="rounded=1;whiteSpace=wrap;html=1;" vertex="1" parent="1">
          <mxGeometry x="289" y="440" width="125" height="40" as="geometry" />
        </mxCell>
        <mxCell id="tyDK1rfAqaSJP7Ka55a6-40" value="Yes" style="text;html=1;align=center;verticalAlign=middle;whiteSpace=wrap;rounded=0;" vertex="1" parent="1">
          <mxGeometry x="215" y="430" width="60" height="30" as="geometry" />
        </mxCell>
        <mxCell id="tyDK1rfAqaSJP7Ka55a6-41" style="edgeStyle=orthogonalEdgeStyle;rounded=0;orthogonalLoop=1;jettySize=auto;html=1;exitX=1;exitY=0.5;exitDx=0;exitDy=0;entryX=0;entryY=0.5;entryDx=0;entryDy=0;" edge="1" parent="1" source="tyDK1rfAqaSJP7Ka55a6-43" target="tyDK1rfAqaSJP7Ka55a6-45">
          <mxGeometry relative="1" as="geometry" />
        </mxCell>
        <mxCell id="tyDK1rfAqaSJP7Ka55a6-42" style="edgeStyle=orthogonalEdgeStyle;rounded=0;orthogonalLoop=1;jettySize=auto;html=1;exitX=0.5;exitY=1;exitDx=0;exitDy=0;entryX=0;entryY=0.5;entryDx=0;entryDy=0;" edge="1" parent="1" source="tyDK1rfAqaSJP7Ka55a6-43" target="tyDK1rfAqaSJP7Ka55a6-21">
          <mxGeometry relative="1" as="geometry" />
        </mxCell>
        <mxCell id="tyDK1rfAqaSJP7Ka55a6-43" value="Do both members exist in timer manager ?" style="rhombus;whiteSpace=wrap;html=1;" vertex="1" parent="1">
          <mxGeometry x="107.5" y="545" width="155" height="80" as="geometry" />
        </mxCell>
        <mxCell id="tyDK1rfAqaSJP7Ka55a6-44" style="edgeStyle=orthogonalEdgeStyle;rounded=0;orthogonalLoop=1;jettySize=auto;html=1;exitX=0.5;exitY=1;exitDx=0;exitDy=0;entryX=0.5;entryY=0;entryDx=0;entryDy=0;" edge="1" parent="1" source="tyDK1rfAqaSJP7Ka55a6-45" target="tyDK1rfAqaSJP7Ka55a6-47">
          <mxGeometry relative="1" as="geometry" />
        </mxCell>
        <mxCell id="tyDK1rfAqaSJP7Ka55a6-45" value="TimersManager.&lt;div&gt;GetTimer(firstMember)&lt;/div&gt;" style="rounded=1;whiteSpace=wrap;html=1;" vertex="1" parent="1">
          <mxGeometry x="321.25" y="565" width="147.5" height="40" as="geometry" />
        </mxCell>
        <mxCell id="tyDK1rfAqaSJP7Ka55a6-46" style="edgeStyle=orthogonalEdgeStyle;rounded=0;orthogonalLoop=1;jettySize=auto;html=1;exitX=0.5;exitY=1;exitDx=0;exitDy=0;entryX=0.5;entryY=0;entryDx=0;entryDy=0;" edge="1" parent="1" source="tyDK1rfAqaSJP7Ka55a6-47" target="tyDK1rfAqaSJP7Ka55a6-55">
          <mxGeometry relative="1" as="geometry" />
        </mxCell>
        <mxCell id="tyDK1rfAqaSJP7Ka55a6-47" value="TimersManager.&lt;div&gt;GetTimer(secondMember)&lt;/div&gt;" style="rounded=1;whiteSpace=wrap;html=1;" vertex="1" parent="1">
          <mxGeometry x="316.25" y="640" width="157.5" height="40" as="geometry" />
        </mxCell>
        <mxCell id="tyDK1rfAqaSJP7Ka55a6-48" value="Yes" style="text;html=1;align=center;verticalAlign=middle;whiteSpace=wrap;rounded=0;" vertex="1" parent="1">
          <mxGeometry x="252.5" y="555" width="60" height="30" as="geometry" />
        </mxCell>
        <mxCell id="tyDK1rfAqaSJP7Ka55a6-49" value="No" style="text;html=1;align=center;verticalAlign=middle;whiteSpace=wrap;rounded=0;" vertex="1" parent="1">
          <mxGeometry x="140" y="500" width="60" height="30" as="geometry" />
        </mxCell>
        <mxCell id="tyDK1rfAqaSJP7Ka55a6-50" value="No" style="text;html=1;align=center;verticalAlign=middle;whiteSpace=wrap;rounded=0;" vertex="1" parent="1">
          <mxGeometry x="140" y="625" width="60" height="30" as="geometry" />
        </mxCell>
        <mxCell id="tyDK1rfAqaSJP7Ka55a6-51" style="edgeStyle=orthogonalEdgeStyle;rounded=0;orthogonalLoop=1;jettySize=auto;html=1;exitX=0.5;exitY=1;exitDx=0;exitDy=0;entryX=1;entryY=0.5;entryDx=0;entryDy=0;" edge="1" parent="1" source="tyDK1rfAqaSJP7Ka55a6-52">
          <mxGeometry relative="1" as="geometry">
            <mxPoint x="632.5" y="1110" as="targetPoint" />
          </mxGeometry>
        </mxCell>
        <mxCell id="tyDK1rfAqaSJP7Ka55a6-52" value="return timer.CurrentTime &amp;gt; threshold" style="rounded=1;whiteSpace=wrap;html=1;" vertex="1" parent="1">
          <mxGeometry x="860" y="670" width="190" height="40" as="geometry" />
        </mxCell>
        <mxCell id="tyDK1rfAqaSJP7Ka55a6-53" style="edgeStyle=orthogonalEdgeStyle;rounded=0;orthogonalLoop=1;jettySize=auto;html=1;exitX=0.5;exitY=1;exitDx=0;exitDy=0;entryX=0.5;entryY=0;entryDx=0;entryDy=0;" edge="1" parent="1" source="tyDK1rfAqaSJP7Ka55a6-55" target="tyDK1rfAqaSJP7Ka55a6-58">
          <mxGeometry relative="1" as="geometry" />
        </mxCell>
        <mxCell id="tyDK1rfAqaSJP7Ka55a6-54" style="edgeStyle=orthogonalEdgeStyle;rounded=0;orthogonalLoop=1;jettySize=auto;html=1;exitX=0;exitY=0.5;exitDx=0;exitDy=0;entryX=1;entryY=0.5;entryDx=0;entryDy=0;" edge="1" parent="1" source="tyDK1rfAqaSJP7Ka55a6-55" target="tyDK1rfAqaSJP7Ka55a6-60">
          <mxGeometry relative="1" as="geometry" />
        </mxCell>
        <mxCell id="tyDK1rfAqaSJP7Ka55a6-55" value="Condition is &#39;Before&#39; ?" style="rhombus;whiteSpace=wrap;html=1;" vertex="1" parent="1">
          <mxGeometry x="355" y="820" width="80" height="80" as="geometry" />
        </mxCell>
        <mxCell id="tyDK1rfAqaSJP7Ka55a6-56" style="edgeStyle=orthogonalEdgeStyle;rounded=0;orthogonalLoop=1;jettySize=auto;html=1;exitX=0;exitY=0.5;exitDx=0;exitDy=0;entryX=1;entryY=0.5;entryDx=0;entryDy=0;" edge="1" parent="1" source="tyDK1rfAqaSJP7Ka55a6-58" target="tyDK1rfAqaSJP7Ka55a6-62">
          <mxGeometry relative="1" as="geometry" />
        </mxCell>
        <mxCell id="tyDK1rfAqaSJP7Ka55a6-57" style="edgeStyle=orthogonalEdgeStyle;rounded=0;orthogonalLoop=1;jettySize=auto;html=1;exitX=1;exitY=0.5;exitDx=0;exitDy=0;entryX=0;entryY=0.5;entryDx=0;entryDy=0;" edge="1" parent="1" source="tyDK1rfAqaSJP7Ka55a6-58" target="tyDK1rfAqaSJP7Ka55a6-21">
          <mxGeometry relative="1" as="geometry" />
        </mxCell>
        <mxCell id="tyDK1rfAqaSJP7Ka55a6-58" value="Condition is &#39;After&#39; ?" style="rhombus;whiteSpace=wrap;html=1;" vertex="1" parent="1">
          <mxGeometry x="355" y="945" width="80" height="80" as="geometry" />
        </mxCell>
        <mxCell id="tyDK1rfAqaSJP7Ka55a6-59" style="edgeStyle=orthogonalEdgeStyle;rounded=0;orthogonalLoop=1;jettySize=auto;html=1;exitX=0;exitY=0.5;exitDx=0;exitDy=0;entryX=0;entryY=0.5;entryDx=0;entryDy=0;" edge="1" parent="1" source="tyDK1rfAqaSJP7Ka55a6-60">
          <mxGeometry relative="1" as="geometry">
            <mxPoint x="452.5" y="1110" as="targetPoint" />
          </mxGeometry>
        </mxCell>
        <mxCell id="tyDK1rfAqaSJP7Ka55a6-60" value="return timer1.CurrentTime &amp;lt; timer2.CurrentTime" style="rounded=1;whiteSpace=wrap;html=1;" vertex="1" parent="1">
          <mxGeometry x="107.5" y="840" width="190" height="40" as="geometry" />
        </mxCell>
        <mxCell id="tyDK1rfAqaSJP7Ka55a6-61" style="edgeStyle=orthogonalEdgeStyle;rounded=0;orthogonalLoop=1;jettySize=auto;html=1;exitX=0.5;exitY=1;exitDx=0;exitDy=0;entryX=0;entryY=0.5;entryDx=0;entryDy=0;" edge="1" parent="1" source="tyDK1rfAqaSJP7Ka55a6-62">
          <mxGeometry relative="1" as="geometry">
            <mxPoint x="452.5" y="1110" as="targetPoint" />
          </mxGeometry>
        </mxCell>
        <mxCell id="tyDK1rfAqaSJP7Ka55a6-62" value="return timer1.CurrentTime &amp;gt; timer2.CurrentTime" style="rounded=1;whiteSpace=wrap;html=1;" vertex="1" parent="1">
          <mxGeometry x="107.5" y="965" width="190" height="40" as="geometry" />
        </mxCell>
        <mxCell id="tyDK1rfAqaSJP7Ka55a6-63" value="Yes" style="text;html=1;align=center;verticalAlign=middle;whiteSpace=wrap;rounded=0;" vertex="1" parent="1">
          <mxGeometry x="310" y="830" width="60" height="30" as="geometry" />
        </mxCell>
        <mxCell id="tyDK1rfAqaSJP7Ka55a6-64" value="Yes" style="text;html=1;align=center;verticalAlign=middle;whiteSpace=wrap;rounded=0;" vertex="1" parent="1">
          <mxGeometry x="310" y="950" width="60" height="30" as="geometry" />
        </mxCell>
        <mxCell id="tyDK1rfAqaSJP7Ka55a6-65" value="No" style="text;html=1;align=center;verticalAlign=middle;whiteSpace=wrap;rounded=0;" vertex="1" parent="1">
          <mxGeometry x="350" y="900" width="60" height="30" as="geometry" />
        </mxCell>
        <mxCell id="tyDK1rfAqaSJP7Ka55a6-66" value="No" style="text;html=1;align=center;verticalAlign=middle;whiteSpace=wrap;rounded=0;" vertex="1" parent="1">
          <mxGeometry x="414" y="990" width="60" height="30" as="geometry" />
        </mxCell>
        <mxCell id="tyDK1rfAqaSJP7Ka55a6-67" style="edgeStyle=orthogonalEdgeStyle;rounded=0;orthogonalLoop=1;jettySize=auto;html=1;exitX=0.5;exitY=1;exitDx=0;exitDy=0;entryX=0.5;entryY=0;entryDx=0;entryDy=0;" edge="1" parent="1" source="tyDK1rfAqaSJP7Ka55a6-68" target="tyDK1rfAqaSJP7Ka55a6-71">
          <mxGeometry relative="1" as="geometry" />
        </mxCell>
        <mxCell id="tyDK1rfAqaSJP7Ka55a6-68" value="TimerCondition.&lt;div&gt;DefineSequences(result)&lt;/div&gt;" style="rounded=1;whiteSpace=wrap;html=1;" vertex="1" parent="1">
          <mxGeometry x="451.5" y="1110" width="180" height="40" as="geometry" />
        </mxCell>
        <mxCell id="tyDK1rfAqaSJP7Ka55a6-69" style="edgeStyle=orthogonalEdgeStyle;rounded=0;orthogonalLoop=1;jettySize=auto;html=1;exitX=0.5;exitY=1;exitDx=0;exitDy=0;entryX=0.5;entryY=0;entryDx=0;entryDy=0;" edge="1" parent="1" source="tyDK1rfAqaSJP7Ka55a6-71" target="tyDK1rfAqaSJP7Ka55a6-75">
          <mxGeometry relative="1" as="geometry" />
        </mxCell>
        <mxCell id="tyDK1rfAqaSJP7Ka55a6-70" style="edgeStyle=orthogonalEdgeStyle;rounded=0;orthogonalLoop=1;jettySize=auto;html=1;exitX=1;exitY=0.5;exitDx=0;exitDy=0;entryX=0;entryY=0.5;entryDx=0;entryDy=0;" edge="1" parent="1" source="tyDK1rfAqaSJP7Ka55a6-71" target="tyDK1rfAqaSJP7Ka55a6-73">
          <mxGeometry relative="1" as="geometry" />
        </mxCell>
        <mxCell id="tyDK1rfAqaSJP7Ka55a6-71" value="result == true ?" style="rhombus;whiteSpace=wrap;html=1;" vertex="1" parent="1">
          <mxGeometry x="501.5" y="1200" width="80" height="80" as="geometry" />
        </mxCell>
        <mxCell id="tyDK1rfAqaSJP7Ka55a6-72" style="edgeStyle=orthogonalEdgeStyle;rounded=0;orthogonalLoop=1;jettySize=auto;html=1;exitX=0.5;exitY=1;exitDx=0;exitDy=0;entryX=0.5;entryY=0;entryDx=0;entryDy=0;" edge="1" parent="1" source="tyDK1rfAqaSJP7Ka55a6-73" target="tyDK1rfAqaSJP7Ka55a6-78">
          <mxGeometry relative="1" as="geometry" />
        </mxCell>
        <mxCell id="tyDK1rfAqaSJP7Ka55a6-73" value="EventsRunner.&lt;div&gt;RunEvents(SequenceWhenTrue)&lt;/div&gt;" style="rounded=1;whiteSpace=wrap;html=1;" vertex="1" parent="1">
          <mxGeometry x="689" y="1220" width="213" height="40" as="geometry" />
        </mxCell>
        <mxCell id="tyDK1rfAqaSJP7Ka55a6-74" style="edgeStyle=orthogonalEdgeStyle;rounded=0;orthogonalLoop=1;jettySize=auto;html=1;exitX=1;exitY=0.5;exitDx=0;exitDy=0;entryX=0;entryY=0.5;entryDx=0;entryDy=0;" edge="1" parent="1" source="tyDK1rfAqaSJP7Ka55a6-75" target="tyDK1rfAqaSJP7Ka55a6-78">
          <mxGeometry relative="1" as="geometry" />
        </mxCell>
        <mxCell id="tyDK1rfAqaSJP7Ka55a6-75" value="EventsRunner.&lt;div&gt;RunEvents(SequenceWhenFalse)&lt;/div&gt;" style="rounded=1;whiteSpace=wrap;html=1;" vertex="1" parent="1">
          <mxGeometry x="435" y="1330" width="213" height="40" as="geometry" />
        </mxCell>
        <mxCell id="tyDK1rfAqaSJP7Ka55a6-76" value="Yes" style="text;html=1;align=center;verticalAlign=middle;whiteSpace=wrap;rounded=0;" vertex="1" parent="1">
          <mxGeometry x="581.5" y="1210" width="60" height="30" as="geometry" />
        </mxCell>
        <mxCell id="tyDK1rfAqaSJP7Ka55a6-77" value="No" style="text;html=1;align=center;verticalAlign=middle;whiteSpace=wrap;rounded=0;" vertex="1" parent="1">
          <mxGeometry x="489" y="1270" width="60" height="30" as="geometry" />
        </mxCell>
        <mxCell id="tyDK1rfAqaSJP7Ka55a6-78" value="TimerCondition.Conclude()" style="rounded=1;whiteSpace=wrap;html=1;" vertex="1" parent="1">
          <mxGeometry x="716.75" y="1330" width="157.5" height="40" as="geometry" />
        </mxCell>
      </root>
    </mxGraphModel>
  </diagram>
  <diagram id="AA3xphBfQ419hQ_Jf-WI" name="VariableCondition">
    <mxGraphModel dx="1434" dy="844" grid="1" gridSize="10" guides="1" tooltips="1" connect="1" arrows="1" fold="1" page="1" pageScale="1" pageWidth="827" pageHeight="1169" math="0" shadow="0">
      <root>
        <mxCell id="0" />
        <mxCell id="1" parent="0" />
        <mxCell id="sYjvfiARKn-eGG5zewV_-1" style="edgeStyle=orthogonalEdgeStyle;rounded=0;orthogonalLoop=1;jettySize=auto;html=1;exitX=0.5;exitY=1;exitDx=0;exitDy=0;entryX=0.5;entryY=0;entryDx=0;entryDy=0;" edge="1" parent="1" source="sYjvfiARKn-eGG5zewV_-2" target="sYjvfiARKn-eGG5zewV_-4">
          <mxGeometry relative="1" as="geometry" />
        </mxCell>
        <mxCell id="sYjvfiARKn-eGG5zewV_-2" value="EventsRunner.RunSequence()" style="rounded=1;whiteSpace=wrap;html=1;" vertex="1" parent="1">
          <mxGeometry x="95" y="50" width="180" height="40" as="geometry" />
        </mxCell>
        <mxCell id="sYjvfiARKn-eGG5zewV_-3" style="edgeStyle=orthogonalEdgeStyle;rounded=0;orthogonalLoop=1;jettySize=auto;html=1;exitX=0.5;exitY=1;exitDx=0;exitDy=0;entryX=0.5;entryY=0;entryDx=0;entryDy=0;" edge="1" parent="1" source="sYjvfiARKn-eGG5zewV_-4" target="sYjvfiARKn-eGG5zewV_-6">
          <mxGeometry relative="1" as="geometry" />
        </mxCell>
        <mxCell id="sYjvfiARKn-eGG5zewV_-4" value="VariableCondition.Run()" style="rounded=1;whiteSpace=wrap;html=1;" vertex="1" parent="1">
          <mxGeometry x="95" y="130" width="180" height="40" as="geometry" />
        </mxCell>
        <mxCell id="sYjvfiARKn-eGG5zewV_-5" style="edgeStyle=orthogonalEdgeStyle;rounded=0;orthogonalLoop=1;jettySize=auto;html=1;exitX=0.5;exitY=1;exitDx=0;exitDy=0;entryX=0.5;entryY=0;entryDx=0;entryDy=0;" edge="1" parent="1" source="sYjvfiARKn-eGG5zewV_-6" target="sYjvfiARKn-eGG5zewV_-9">
          <mxGeometry relative="1" as="geometry" />
        </mxCell>
        <mxCell id="sYjvfiARKn-eGG5zewV_-6" value="ConditionEvaluator.&lt;div&gt;EvaluateVariableCondition(VariableCondition)&lt;/div&gt;" style="rounded=1;whiteSpace=wrap;html=1;" vertex="1" parent="1">
          <mxGeometry x="57.5" y="210" width="255" height="40" as="geometry" />
        </mxCell>
        <mxCell id="sYjvfiARKn-eGG5zewV_-7" style="edgeStyle=orthogonalEdgeStyle;rounded=0;orthogonalLoop=1;jettySize=auto;html=1;exitX=0.5;exitY=1;exitDx=0;exitDy=0;entryX=0.5;entryY=0;entryDx=0;entryDy=0;" edge="1" parent="1" source="sYjvfiARKn-eGG5zewV_-9" target="sYjvfiARKn-eGG5zewV_-12">
          <mxGeometry relative="1" as="geometry" />
        </mxCell>
        <mxCell id="sYjvfiARKn-eGG5zewV_-8" style="edgeStyle=orthogonalEdgeStyle;rounded=0;orthogonalLoop=1;jettySize=auto;html=1;exitX=1;exitY=0.5;exitDx=0;exitDy=0;entryX=0;entryY=0.5;entryDx=0;entryDy=0;" edge="1" parent="1" source="sYjvfiARKn-eGG5zewV_-9" target="sYjvfiARKn-eGG5zewV_-18">
          <mxGeometry relative="1" as="geometry" />
        </mxCell>
        <mxCell id="sYjvfiARKn-eGG5zewV_-9" value="Is the first member a int ?" style="rhombus;whiteSpace=wrap;html=1;" vertex="1" parent="1">
          <mxGeometry x="145" y="300" width="80" height="80" as="geometry" />
        </mxCell>
        <mxCell id="sYjvfiARKn-eGG5zewV_-10" style="edgeStyle=orthogonalEdgeStyle;rounded=0;orthogonalLoop=1;jettySize=auto;html=1;exitX=0.5;exitY=1;exitDx=0;exitDy=0;entryX=0.5;entryY=0;entryDx=0;entryDy=0;" edge="1" parent="1" source="sYjvfiARKn-eGG5zewV_-12" target="sYjvfiARKn-eGG5zewV_-14">
          <mxGeometry relative="1" as="geometry" />
        </mxCell>
        <mxCell id="sYjvfiARKn-eGG5zewV_-11" style="edgeStyle=orthogonalEdgeStyle;rounded=0;orthogonalLoop=1;jettySize=auto;html=1;exitX=1;exitY=0.5;exitDx=0;exitDy=0;entryX=0;entryY=0.5;entryDx=0;entryDy=0;" edge="1" parent="1" source="sYjvfiARKn-eGG5zewV_-12" target="sYjvfiARKn-eGG5zewV_-24">
          <mxGeometry relative="1" as="geometry" />
        </mxCell>
        <mxCell id="sYjvfiARKn-eGG5zewV_-12" value="Is the second member a int ?" style="rhombus;whiteSpace=wrap;html=1;" vertex="1" parent="1">
          <mxGeometry x="145" y="420" width="80" height="80" as="geometry" />
        </mxCell>
        <mxCell id="sYjvfiARKn-eGG5zewV_-13" style="edgeStyle=orthogonalEdgeStyle;rounded=0;orthogonalLoop=1;jettySize=auto;html=1;exitX=0.5;exitY=1;exitDx=0;exitDy=0;entryX=0;entryY=0.5;entryDx=0;entryDy=0;" edge="1" parent="1" source="sYjvfiARKn-eGG5zewV_-14" target="sYjvfiARKn-eGG5zewV_-71">
          <mxGeometry relative="1" as="geometry" />
        </mxCell>
        <mxCell id="sYjvfiARKn-eGG5zewV_-14" value="Do both members exist in data holder ?" style="rhombus;whiteSpace=wrap;html=1;" vertex="1" parent="1">
          <mxGeometry x="107.5" y="545" width="155" height="80" as="geometry" />
        </mxCell>
        <mxCell id="sYjvfiARKn-eGG5zewV_-15" value="No" style="text;html=1;align=center;verticalAlign=middle;whiteSpace=wrap;rounded=0;" vertex="1" parent="1">
          <mxGeometry x="140" y="380" width="60" height="30" as="geometry" />
        </mxCell>
        <mxCell id="sYjvfiARKn-eGG5zewV_-16" value="No" style="text;html=1;align=center;verticalAlign=middle;whiteSpace=wrap;rounded=0;" vertex="1" parent="1">
          <mxGeometry x="140" y="500" width="60" height="30" as="geometry" />
        </mxCell>
        <mxCell id="sYjvfiARKn-eGG5zewV_-17" style="edgeStyle=orthogonalEdgeStyle;rounded=0;orthogonalLoop=1;jettySize=auto;html=1;exitX=0.5;exitY=1;exitDx=0;exitDy=0;entryX=0.5;entryY=0;entryDx=0;entryDy=0;" edge="1" parent="1" source="sYjvfiARKn-eGG5zewV_-18" target="sYjvfiARKn-eGG5zewV_-22">
          <mxGeometry relative="1" as="geometry" />
        </mxCell>
        <mxCell id="sYjvfiARKn-eGG5zewV_-18" value="EvaluateMembers&lt;div&gt;(firstMember)&lt;/div&gt;" style="rounded=1;whiteSpace=wrap;html=1;" vertex="1" parent="1">
          <mxGeometry x="480" y="320" width="125" height="40" as="geometry" />
        </mxCell>
        <mxCell id="sYjvfiARKn-eGG5zewV_-19" value="Yes" style="text;html=1;align=center;verticalAlign=middle;whiteSpace=wrap;rounded=0;" vertex="1" parent="1">
          <mxGeometry x="225" y="310" width="60" height="30" as="geometry" />
        </mxCell>
        <mxCell id="sYjvfiARKn-eGG5zewV_-20" style="edgeStyle=orthogonalEdgeStyle;rounded=0;orthogonalLoop=1;jettySize=auto;html=1;exitX=1;exitY=0.5;exitDx=0;exitDy=0;entryX=0;entryY=0.5;entryDx=0;entryDy=0;" edge="1" parent="1" source="sYjvfiARKn-eGG5zewV_-22" target="sYjvfiARKn-eGG5zewV_-27">
          <mxGeometry relative="1" as="geometry" />
        </mxCell>
        <mxCell id="sYjvfiARKn-eGG5zewV_-21" style="edgeStyle=orthogonalEdgeStyle;rounded=0;orthogonalLoop=1;jettySize=auto;html=1;exitX=0.5;exitY=1;exitDx=0;exitDy=0;entryX=0.5;entryY=0;entryDx=0;entryDy=0;" edge="1" parent="1" source="sYjvfiARKn-eGG5zewV_-22" target="sYjvfiARKn-eGG5zewV_-71">
          <mxGeometry relative="1" as="geometry" />
        </mxCell>
        <mxCell id="sYjvfiARKn-eGG5zewV_-22" value="Does the member exist in data holder ?" style="rhombus;whiteSpace=wrap;html=1;" vertex="1" parent="1">
          <mxGeometry x="468.75" y="420" width="147.5" height="80" as="geometry" />
        </mxCell>
        <mxCell id="sYjvfiARKn-eGG5zewV_-23" style="edgeStyle=orthogonalEdgeStyle;rounded=0;orthogonalLoop=1;jettySize=auto;html=1;exitX=1;exitY=0.5;exitDx=0;exitDy=0;entryX=0;entryY=0.5;entryDx=0;entryDy=0;" edge="1" parent="1" source="sYjvfiARKn-eGG5zewV_-24" target="sYjvfiARKn-eGG5zewV_-22">
          <mxGeometry relative="1" as="geometry" />
        </mxCell>
        <mxCell id="sYjvfiARKn-eGG5zewV_-24" value="EvaluateMembers&lt;div&gt;(secondMember)&lt;/div&gt;" style="rounded=1;whiteSpace=wrap;html=1;" vertex="1" parent="1">
          <mxGeometry x="289" y="440" width="125" height="40" as="geometry" />
        </mxCell>
        <mxCell id="sYjvfiARKn-eGG5zewV_-25" value="Yes" style="text;html=1;align=center;verticalAlign=middle;whiteSpace=wrap;rounded=0;" vertex="1" parent="1">
          <mxGeometry x="225" y="430" width="60" height="30" as="geometry" />
        </mxCell>
        <mxCell id="sYjvfiARKn-eGG5zewV_-26" style="edgeStyle=orthogonalEdgeStyle;rounded=0;orthogonalLoop=1;jettySize=auto;html=1;exitX=0.5;exitY=1;exitDx=0;exitDy=0;entryX=0.5;entryY=0;entryDx=0;entryDy=0;" edge="1" parent="1" source="sYjvfiARKn-eGG5zewV_-27" target="sYjvfiARKn-eGG5zewV_-31">
          <mxGeometry relative="1" as="geometry" />
        </mxCell>
        <mxCell id="sYjvfiARKn-eGG5zewV_-27" value="PersistentDataHolder.&lt;div&gt;GetData(member)&lt;/div&gt;" style="rounded=1;whiteSpace=wrap;html=1;" vertex="1" parent="1">
          <mxGeometry x="690" y="440" width="125" height="40" as="geometry" />
        </mxCell>
        <mxCell id="sYjvfiARKn-eGG5zewV_-28" value="Yes" style="text;html=1;align=center;verticalAlign=middle;whiteSpace=wrap;rounded=0;" vertex="1" parent="1">
          <mxGeometry x="605" y="430" width="60" height="30" as="geometry" />
        </mxCell>
        <mxCell id="sYjvfiARKn-eGG5zewV_-29" style="edgeStyle=orthogonalEdgeStyle;rounded=0;orthogonalLoop=1;jettySize=auto;html=1;exitX=0.5;exitY=1;exitDx=0;exitDy=0;entryX=0.5;entryY=0;entryDx=0;entryDy=0;" edge="1" parent="1" source="sYjvfiARKn-eGG5zewV_-31" target="sYjvfiARKn-eGG5zewV_-34">
          <mxGeometry relative="1" as="geometry" />
        </mxCell>
        <mxCell id="sYjvfiARKn-eGG5zewV_-30" style="edgeStyle=orthogonalEdgeStyle;rounded=0;orthogonalLoop=1;jettySize=auto;html=1;exitX=1;exitY=0.5;exitDx=0;exitDy=0;entryX=0;entryY=0.5;entryDx=0;entryDy=0;" edge="1" parent="1" source="sYjvfiARKn-eGG5zewV_-31" target="sYjvfiARKn-eGG5zewV_-53">
          <mxGeometry relative="1" as="geometry" />
        </mxCell>
        <mxCell id="sYjvfiARKn-eGG5zewV_-31" value="Condition is &#39;Equal&#39; ?" style="rhombus;whiteSpace=wrap;html=1;" vertex="1" parent="1">
          <mxGeometry x="712.5" y="525" width="80" height="80" as="geometry" />
        </mxCell>
        <mxCell id="sYjvfiARKn-eGG5zewV_-32" style="edgeStyle=orthogonalEdgeStyle;rounded=0;orthogonalLoop=1;jettySize=auto;html=1;exitX=0.5;exitY=1;exitDx=0;exitDy=0;entryX=0.5;entryY=0;entryDx=0;entryDy=0;" edge="1" parent="1" source="sYjvfiARKn-eGG5zewV_-34" target="sYjvfiARKn-eGG5zewV_-37">
          <mxGeometry relative="1" as="geometry" />
        </mxCell>
        <mxCell id="sYjvfiARKn-eGG5zewV_-33" style="edgeStyle=orthogonalEdgeStyle;rounded=0;orthogonalLoop=1;jettySize=auto;html=1;exitX=1;exitY=0.5;exitDx=0;exitDy=0;entryX=0;entryY=0.5;entryDx=0;entryDy=0;" edge="1" parent="1" source="sYjvfiARKn-eGG5zewV_-34" target="sYjvfiARKn-eGG5zewV_-55">
          <mxGeometry relative="1" as="geometry" />
        </mxCell>
        <mxCell id="sYjvfiARKn-eGG5zewV_-34" value="Condition is &#39;Different&#39; ?" style="rhombus;whiteSpace=wrap;html=1;" vertex="1" parent="1">
          <mxGeometry x="712.5" y="650" width="80" height="80" as="geometry" />
        </mxCell>
        <mxCell id="sYjvfiARKn-eGG5zewV_-35" style="edgeStyle=orthogonalEdgeStyle;rounded=0;orthogonalLoop=1;jettySize=auto;html=1;exitX=0.5;exitY=1;exitDx=0;exitDy=0;entryX=0.5;entryY=0;entryDx=0;entryDy=0;" edge="1" parent="1" source="sYjvfiARKn-eGG5zewV_-37" target="sYjvfiARKn-eGG5zewV_-40">
          <mxGeometry relative="1" as="geometry" />
        </mxCell>
        <mxCell id="sYjvfiARKn-eGG5zewV_-36" style="edgeStyle=orthogonalEdgeStyle;rounded=0;orthogonalLoop=1;jettySize=auto;html=1;exitX=1;exitY=0.5;exitDx=0;exitDy=0;entryX=0;entryY=0.5;entryDx=0;entryDy=0;" edge="1" parent="1" source="sYjvfiARKn-eGG5zewV_-37" target="sYjvfiARKn-eGG5zewV_-57">
          <mxGeometry relative="1" as="geometry" />
        </mxCell>
        <mxCell id="sYjvfiARKn-eGG5zewV_-37" value="Condition is &#39;EqualOrGreaterThan&#39; ?" style="rhombus;whiteSpace=wrap;html=1;" vertex="1" parent="1">
          <mxGeometry x="673.75" y="780" width="157.5" height="80" as="geometry" />
        </mxCell>
        <mxCell id="sYjvfiARKn-eGG5zewV_-38" style="edgeStyle=orthogonalEdgeStyle;rounded=0;orthogonalLoop=1;jettySize=auto;html=1;exitX=0.5;exitY=1;exitDx=0;exitDy=0;entryX=0.5;entryY=0;entryDx=0;entryDy=0;" edge="1" parent="1" source="sYjvfiARKn-eGG5zewV_-40" target="sYjvfiARKn-eGG5zewV_-43">
          <mxGeometry relative="1" as="geometry" />
        </mxCell>
        <mxCell id="sYjvfiARKn-eGG5zewV_-39" style="edgeStyle=orthogonalEdgeStyle;rounded=0;orthogonalLoop=1;jettySize=auto;html=1;exitX=1;exitY=0.5;exitDx=0;exitDy=0;entryX=0;entryY=0.5;entryDx=0;entryDy=0;" edge="1" parent="1" source="sYjvfiARKn-eGG5zewV_-40" target="sYjvfiARKn-eGG5zewV_-59">
          <mxGeometry relative="1" as="geometry" />
        </mxCell>
        <mxCell id="sYjvfiARKn-eGG5zewV_-40" value="Condition is &#39;EqualOrSmallerThan&#39; ?" style="rhombus;whiteSpace=wrap;html=1;" vertex="1" parent="1">
          <mxGeometry x="673.75" y="910" width="157.5" height="80" as="geometry" />
        </mxCell>
        <mxCell id="sYjvfiARKn-eGG5zewV_-41" style="edgeStyle=orthogonalEdgeStyle;rounded=0;orthogonalLoop=1;jettySize=auto;html=1;exitX=0.5;exitY=1;exitDx=0;exitDy=0;entryX=0.5;entryY=0;entryDx=0;entryDy=0;" edge="1" parent="1" source="sYjvfiARKn-eGG5zewV_-43" target="sYjvfiARKn-eGG5zewV_-46">
          <mxGeometry relative="1" as="geometry" />
        </mxCell>
        <mxCell id="sYjvfiARKn-eGG5zewV_-42" style="edgeStyle=orthogonalEdgeStyle;rounded=0;orthogonalLoop=1;jettySize=auto;html=1;exitX=1;exitY=0.5;exitDx=0;exitDy=0;entryX=0;entryY=0.5;entryDx=0;entryDy=0;" edge="1" parent="1" source="sYjvfiARKn-eGG5zewV_-43" target="sYjvfiARKn-eGG5zewV_-61">
          <mxGeometry relative="1" as="geometry" />
        </mxCell>
        <mxCell id="sYjvfiARKn-eGG5zewV_-43" value="Condition is &#39;GreaterThan&#39; ?" style="rhombus;whiteSpace=wrap;html=1;" vertex="1" parent="1">
          <mxGeometry x="673.75" y="1040" width="157.5" height="80" as="geometry" />
        </mxCell>
        <mxCell id="sYjvfiARKn-eGG5zewV_-44" style="edgeStyle=orthogonalEdgeStyle;rounded=0;orthogonalLoop=1;jettySize=auto;html=1;exitX=1;exitY=0.5;exitDx=0;exitDy=0;entryX=0;entryY=0.5;entryDx=0;entryDy=0;" edge="1" parent="1" source="sYjvfiARKn-eGG5zewV_-46" target="sYjvfiARKn-eGG5zewV_-63">
          <mxGeometry relative="1" as="geometry" />
        </mxCell>
        <mxCell id="sYjvfiARKn-eGG5zewV_-45" style="edgeStyle=orthogonalEdgeStyle;rounded=0;orthogonalLoop=1;jettySize=auto;html=1;exitX=0.5;exitY=1;exitDx=0;exitDy=0;entryX=1;entryY=0.5;entryDx=0;entryDy=0;" edge="1" parent="1" source="sYjvfiARKn-eGG5zewV_-46" target="sYjvfiARKn-eGG5zewV_-71">
          <mxGeometry relative="1" as="geometry" />
        </mxCell>
        <mxCell id="sYjvfiARKn-eGG5zewV_-46" value="Condition is &#39;SmallerThan&#39; ?" style="rhombus;whiteSpace=wrap;html=1;" vertex="1" parent="1">
          <mxGeometry x="673.75" y="1169" width="157.5" height="80" as="geometry" />
        </mxCell>
        <mxCell id="sYjvfiARKn-eGG5zewV_-47" value="No" style="text;html=1;align=center;verticalAlign=middle;whiteSpace=wrap;rounded=0;" vertex="1" parent="1">
          <mxGeometry x="700" y="605" width="60" height="30" as="geometry" />
        </mxCell>
        <mxCell id="sYjvfiARKn-eGG5zewV_-48" value="No" style="text;html=1;align=center;verticalAlign=middle;whiteSpace=wrap;rounded=0;" vertex="1" parent="1">
          <mxGeometry x="700" y="730" width="60" height="30" as="geometry" />
        </mxCell>
        <mxCell id="sYjvfiARKn-eGG5zewV_-49" value="No" style="text;html=1;align=center;verticalAlign=middle;whiteSpace=wrap;rounded=0;" vertex="1" parent="1">
          <mxGeometry x="700" y="860" width="60" height="30" as="geometry" />
        </mxCell>
        <mxCell id="sYjvfiARKn-eGG5zewV_-50" value="No" style="text;html=1;align=center;verticalAlign=middle;whiteSpace=wrap;rounded=0;" vertex="1" parent="1">
          <mxGeometry x="700" y="990" width="60" height="30" as="geometry" />
        </mxCell>
        <mxCell id="sYjvfiARKn-eGG5zewV_-51" value="No" style="text;html=1;align=center;verticalAlign=middle;whiteSpace=wrap;rounded=0;" vertex="1" parent="1">
          <mxGeometry x="700" y="1120" width="60" height="30" as="geometry" />
        </mxCell>
        <mxCell id="sYjvfiARKn-eGG5zewV_-52" style="edgeStyle=orthogonalEdgeStyle;rounded=0;orthogonalLoop=1;jettySize=auto;html=1;exitX=1;exitY=0.5;exitDx=0;exitDy=0;entryX=1;entryY=0.5;entryDx=0;entryDy=0;" edge="1" parent="1" source="sYjvfiARKn-eGG5zewV_-53" target="sYjvfiARKn-eGG5zewV_-71">
          <mxGeometry relative="1" as="geometry" />
        </mxCell>
        <mxCell id="sYjvfiARKn-eGG5zewV_-53" value="return firstMember == secondMember" style="rounded=1;whiteSpace=wrap;html=1;" vertex="1" parent="1">
          <mxGeometry x="860" y="545" width="125" height="40" as="geometry" />
        </mxCell>
        <mxCell id="sYjvfiARKn-eGG5zewV_-54" style="edgeStyle=orthogonalEdgeStyle;rounded=0;orthogonalLoop=1;jettySize=auto;html=1;exitX=1;exitY=0.5;exitDx=0;exitDy=0;entryX=1;entryY=0.5;entryDx=0;entryDy=0;" edge="1" parent="1" source="sYjvfiARKn-eGG5zewV_-55" target="sYjvfiARKn-eGG5zewV_-71">
          <mxGeometry relative="1" as="geometry" />
        </mxCell>
        <mxCell id="sYjvfiARKn-eGG5zewV_-55" value="return firstMember != secondMember" style="rounded=1;whiteSpace=wrap;html=1;" vertex="1" parent="1">
          <mxGeometry x="860" y="670" width="125" height="40" as="geometry" />
        </mxCell>
        <mxCell id="sYjvfiARKn-eGG5zewV_-56" style="edgeStyle=orthogonalEdgeStyle;rounded=0;orthogonalLoop=1;jettySize=auto;html=1;exitX=1;exitY=0.5;exitDx=0;exitDy=0;entryX=1;entryY=0.5;entryDx=0;entryDy=0;" edge="1" parent="1" source="sYjvfiARKn-eGG5zewV_-57" target="sYjvfiARKn-eGG5zewV_-71">
          <mxGeometry relative="1" as="geometry" />
        </mxCell>
        <mxCell id="sYjvfiARKn-eGG5zewV_-57" value="return firstMember &amp;gt;= secondMember" style="rounded=1;whiteSpace=wrap;html=1;" vertex="1" parent="1">
          <mxGeometry x="860" y="800" width="125" height="40" as="geometry" />
        </mxCell>
        <mxCell id="sYjvfiARKn-eGG5zewV_-58" style="edgeStyle=orthogonalEdgeStyle;rounded=0;orthogonalLoop=1;jettySize=auto;html=1;exitX=1;exitY=0.5;exitDx=0;exitDy=0;entryX=1;entryY=0.5;entryDx=0;entryDy=0;" edge="1" parent="1" source="sYjvfiARKn-eGG5zewV_-59" target="sYjvfiARKn-eGG5zewV_-71">
          <mxGeometry relative="1" as="geometry" />
        </mxCell>
        <mxCell id="sYjvfiARKn-eGG5zewV_-59" value="return firstMember&amp;lt;= secondMember" style="rounded=1;whiteSpace=wrap;html=1;" vertex="1" parent="1">
          <mxGeometry x="860" y="930" width="125" height="40" as="geometry" />
        </mxCell>
        <mxCell id="sYjvfiARKn-eGG5zewV_-60" style="edgeStyle=orthogonalEdgeStyle;rounded=0;orthogonalLoop=1;jettySize=auto;html=1;exitX=1;exitY=0.5;exitDx=0;exitDy=0;entryX=1;entryY=0.5;entryDx=0;entryDy=0;" edge="1" parent="1" source="sYjvfiARKn-eGG5zewV_-61" target="sYjvfiARKn-eGG5zewV_-71">
          <mxGeometry relative="1" as="geometry" />
        </mxCell>
        <mxCell id="sYjvfiARKn-eGG5zewV_-61" value="return firstMember &amp;gt; secondMember" style="rounded=1;whiteSpace=wrap;html=1;" vertex="1" parent="1">
          <mxGeometry x="860" y="1060" width="125" height="40" as="geometry" />
        </mxCell>
        <mxCell id="sYjvfiARKn-eGG5zewV_-62" style="edgeStyle=orthogonalEdgeStyle;rounded=0;orthogonalLoop=1;jettySize=auto;html=1;exitX=1;exitY=0.5;exitDx=0;exitDy=0;entryX=1;entryY=0.5;entryDx=0;entryDy=0;" edge="1" parent="1" source="sYjvfiARKn-eGG5zewV_-63" target="sYjvfiARKn-eGG5zewV_-71">
          <mxGeometry relative="1" as="geometry" />
        </mxCell>
        <mxCell id="sYjvfiARKn-eGG5zewV_-63" value="return firstMember &amp;lt; secondMember" style="rounded=1;whiteSpace=wrap;html=1;" vertex="1" parent="1">
          <mxGeometry x="860" y="1189" width="125" height="40" as="geometry" />
        </mxCell>
        <mxCell id="sYjvfiARKn-eGG5zewV_-64" value="Yes" style="text;html=1;align=center;verticalAlign=middle;whiteSpace=wrap;rounded=0;" vertex="1" parent="1">
          <mxGeometry x="780" y="540" width="60" height="30" as="geometry" />
        </mxCell>
        <mxCell id="sYjvfiARKn-eGG5zewV_-65" value="Yes" style="text;html=1;align=center;verticalAlign=middle;whiteSpace=wrap;rounded=0;" vertex="1" parent="1">
          <mxGeometry x="780" y="660" width="60" height="30" as="geometry" />
        </mxCell>
        <mxCell id="sYjvfiARKn-eGG5zewV_-66" value="Yes" style="text;html=1;align=center;verticalAlign=middle;whiteSpace=wrap;rounded=0;" vertex="1" parent="1">
          <mxGeometry x="810" y="790" width="60" height="30" as="geometry" />
        </mxCell>
        <mxCell id="sYjvfiARKn-eGG5zewV_-67" value="Yes" style="text;html=1;align=center;verticalAlign=middle;whiteSpace=wrap;rounded=0;" vertex="1" parent="1">
          <mxGeometry x="810" y="920" width="60" height="30" as="geometry" />
        </mxCell>
        <mxCell id="sYjvfiARKn-eGG5zewV_-68" value="Yes" style="text;html=1;align=center;verticalAlign=middle;whiteSpace=wrap;rounded=0;" vertex="1" parent="1">
          <mxGeometry x="810" y="1050" width="60" height="30" as="geometry" />
        </mxCell>
        <mxCell id="sYjvfiARKn-eGG5zewV_-69" value="Yes" style="text;html=1;align=center;verticalAlign=middle;whiteSpace=wrap;rounded=0;" vertex="1" parent="1">
          <mxGeometry x="810" y="1180" width="60" height="30" as="geometry" />
        </mxCell>
        <mxCell id="sYjvfiARKn-eGG5zewV_-70" style="edgeStyle=orthogonalEdgeStyle;rounded=0;orthogonalLoop=1;jettySize=auto;html=1;exitX=0.5;exitY=1;exitDx=0;exitDy=0;entryX=0.5;entryY=0;entryDx=0;entryDy=0;" edge="1" parent="1" source="sYjvfiARKn-eGG5zewV_-71">
          <mxGeometry relative="1" as="geometry">
            <mxPoint x="542.5" y="1400" as="targetPoint" />
          </mxGeometry>
        </mxCell>
        <mxCell id="sYjvfiARKn-eGG5zewV_-71" value="return false" style="rounded=1;whiteSpace=wrap;html=1;" vertex="1" parent="1">
          <mxGeometry x="480" y="1300" width="125" height="40" as="geometry" />
        </mxCell>
        <mxCell id="sYjvfiARKn-eGG5zewV_-72" value="No" style="text;html=1;align=center;verticalAlign=middle;whiteSpace=wrap;rounded=0;" vertex="1" parent="1">
          <mxGeometry x="490" y="500" width="60" height="30" as="geometry" />
        </mxCell>
        <mxCell id="sYjvfiARKn-eGG5zewV_-73" value="No" style="text;html=1;align=center;verticalAlign=middle;whiteSpace=wrap;rounded=0;" vertex="1" parent="1">
          <mxGeometry x="700" y="1240" width="60" height="30" as="geometry" />
        </mxCell>
        <mxCell id="sYjvfiARKn-eGG5zewV_-74" style="edgeStyle=orthogonalEdgeStyle;rounded=0;orthogonalLoop=1;jettySize=auto;html=1;exitX=0.5;exitY=1;exitDx=0;exitDy=0;entryX=0.5;entryY=0;entryDx=0;entryDy=0;" edge="1" parent="1" source="sYjvfiARKn-eGG5zewV_-75" target="sYjvfiARKn-eGG5zewV_-78">
          <mxGeometry relative="1" as="geometry" />
        </mxCell>
        <mxCell id="sYjvfiARKn-eGG5zewV_-75" value="VariableCondition.&lt;div&gt;DefineSequences(result)&lt;/div&gt;" style="rounded=1;whiteSpace=wrap;html=1;" vertex="1" parent="1">
          <mxGeometry x="452.5" y="1400" width="180" height="40" as="geometry" />
        </mxCell>
        <mxCell id="sYjvfiARKn-eGG5zewV_-76" style="edgeStyle=orthogonalEdgeStyle;rounded=0;orthogonalLoop=1;jettySize=auto;html=1;exitX=0.5;exitY=1;exitDx=0;exitDy=0;entryX=0.5;entryY=0;entryDx=0;entryDy=0;" edge="1" parent="1" source="sYjvfiARKn-eGG5zewV_-78" target="sYjvfiARKn-eGG5zewV_-82">
          <mxGeometry relative="1" as="geometry" />
        </mxCell>
        <mxCell id="sYjvfiARKn-eGG5zewV_-77" style="edgeStyle=orthogonalEdgeStyle;rounded=0;orthogonalLoop=1;jettySize=auto;html=1;exitX=1;exitY=0.5;exitDx=0;exitDy=0;entryX=0;entryY=0.5;entryDx=0;entryDy=0;" edge="1" parent="1" source="sYjvfiARKn-eGG5zewV_-78" target="sYjvfiARKn-eGG5zewV_-80">
          <mxGeometry relative="1" as="geometry" />
        </mxCell>
        <mxCell id="sYjvfiARKn-eGG5zewV_-78" value="result == true ?" style="rhombus;whiteSpace=wrap;html=1;" vertex="1" parent="1">
          <mxGeometry x="502.5" y="1490" width="80" height="80" as="geometry" />
        </mxCell>
        <mxCell id="sYjvfiARKn-eGG5zewV_-79" style="edgeStyle=orthogonalEdgeStyle;rounded=0;orthogonalLoop=1;jettySize=auto;html=1;exitX=0.5;exitY=1;exitDx=0;exitDy=0;entryX=0.5;entryY=0;entryDx=0;entryDy=0;" edge="1" parent="1" source="sYjvfiARKn-eGG5zewV_-80" target="sYjvfiARKn-eGG5zewV_-85">
          <mxGeometry relative="1" as="geometry" />
        </mxCell>
        <mxCell id="sYjvfiARKn-eGG5zewV_-80" value="EventsRunner.&lt;div&gt;RunEvents(SequenceWhenTrue)&lt;/div&gt;" style="rounded=1;whiteSpace=wrap;html=1;" vertex="1" parent="1">
          <mxGeometry x="690" y="1510" width="213" height="40" as="geometry" />
        </mxCell>
        <mxCell id="sYjvfiARKn-eGG5zewV_-81" style="edgeStyle=orthogonalEdgeStyle;rounded=0;orthogonalLoop=1;jettySize=auto;html=1;exitX=1;exitY=0.5;exitDx=0;exitDy=0;entryX=0;entryY=0.5;entryDx=0;entryDy=0;" edge="1" parent="1" source="sYjvfiARKn-eGG5zewV_-82" target="sYjvfiARKn-eGG5zewV_-85">
          <mxGeometry relative="1" as="geometry" />
        </mxCell>
        <mxCell id="sYjvfiARKn-eGG5zewV_-82" value="EventsRunner.&lt;div&gt;RunEvents(SequenceWhenFalse)&lt;/div&gt;" style="rounded=1;whiteSpace=wrap;html=1;" vertex="1" parent="1">
          <mxGeometry x="436" y="1620" width="213" height="40" as="geometry" />
        </mxCell>
        <mxCell id="sYjvfiARKn-eGG5zewV_-83" value="Yes" style="text;html=1;align=center;verticalAlign=middle;whiteSpace=wrap;rounded=0;" vertex="1" parent="1">
          <mxGeometry x="582.5" y="1500" width="60" height="30" as="geometry" />
        </mxCell>
        <mxCell id="sYjvfiARKn-eGG5zewV_-84" value="No" style="text;html=1;align=center;verticalAlign=middle;whiteSpace=wrap;rounded=0;" vertex="1" parent="1">
          <mxGeometry x="490" y="1560" width="60" height="30" as="geometry" />
        </mxCell>
        <mxCell id="sYjvfiARKn-eGG5zewV_-85" value="VariableCondition.Conclude()" style="rounded=1;whiteSpace=wrap;html=1;" vertex="1" parent="1">
          <mxGeometry x="717.75" y="1620" width="157.5" height="40" as="geometry" />
        </mxCell>
      </root>
    </mxGraphModel>
  </diagram>
  <diagram id="mAsOi1JUz5YXEnEsmKdo" name="SwitchCondition">
    <mxGraphModel dx="1434" dy="844" grid="1" gridSize="10" guides="1" tooltips="1" connect="1" arrows="1" fold="1" page="1" pageScale="1" pageWidth="827" pageHeight="1169" math="0" shadow="0">
      <root>
        <mxCell id="0" />
        <mxCell id="1" parent="0" />
        <mxCell id="LFCyWpjY3uHjVUcwNkNy-1" style="edgeStyle=orthogonalEdgeStyle;rounded=0;orthogonalLoop=1;jettySize=auto;html=1;exitX=0.5;exitY=1;exitDx=0;exitDy=0;entryX=0.5;entryY=0;entryDx=0;entryDy=0;" edge="1" parent="1" source="LFCyWpjY3uHjVUcwNkNy-2" target="LFCyWpjY3uHjVUcwNkNy-4">
          <mxGeometry relative="1" as="geometry" />
        </mxCell>
        <mxCell id="LFCyWpjY3uHjVUcwNkNy-2" value="EventsRunner.RunSequence()" style="rounded=1;whiteSpace=wrap;html=1;" vertex="1" parent="1">
          <mxGeometry x="95" y="50" width="180" height="40" as="geometry" />
        </mxCell>
        <mxCell id="LFCyWpjY3uHjVUcwNkNy-3" style="edgeStyle=orthogonalEdgeStyle;rounded=0;orthogonalLoop=1;jettySize=auto;html=1;exitX=0.5;exitY=1;exitDx=0;exitDy=0;entryX=0.5;entryY=0;entryDx=0;entryDy=0;" edge="1" parent="1" source="LFCyWpjY3uHjVUcwNkNy-4" target="LFCyWpjY3uHjVUcwNkNy-6">
          <mxGeometry relative="1" as="geometry" />
        </mxCell>
        <mxCell id="LFCyWpjY3uHjVUcwNkNy-4" value="SwitchCondition.Run()" style="rounded=1;whiteSpace=wrap;html=1;" vertex="1" parent="1">
          <mxGeometry x="95" y="130" width="180" height="40" as="geometry" />
        </mxCell>
        <mxCell id="LFCyWpjY3uHjVUcwNkNy-5" style="edgeStyle=orthogonalEdgeStyle;rounded=0;orthogonalLoop=1;jettySize=auto;html=1;exitX=0.5;exitY=1;exitDx=0;exitDy=0;entryX=0.5;entryY=0;entryDx=0;entryDy=0;" edge="1" parent="1" source="LFCyWpjY3uHjVUcwNkNy-6" target="LFCyWpjY3uHjVUcwNkNy-9">
          <mxGeometry relative="1" as="geometry" />
        </mxCell>
        <mxCell id="LFCyWpjY3uHjVUcwNkNy-6" value="ConditionEvaluator.&lt;div&gt;EvaluateSwitchCondition(SwitchCondition)&lt;/div&gt;" style="rounded=1;whiteSpace=wrap;html=1;" vertex="1" parent="1">
          <mxGeometry x="57.5" y="210" width="255" height="40" as="geometry" />
        </mxCell>
        <mxCell id="LFCyWpjY3uHjVUcwNkNy-7" style="edgeStyle=orthogonalEdgeStyle;rounded=0;orthogonalLoop=1;jettySize=auto;html=1;exitX=0.5;exitY=1;exitDx=0;exitDy=0;entryX=0.5;entryY=0;entryDx=0;entryDy=0;" edge="1" parent="1" source="LFCyWpjY3uHjVUcwNkNy-9" target="LFCyWpjY3uHjVUcwNkNy-12">
          <mxGeometry relative="1" as="geometry" />
        </mxCell>
        <mxCell id="LFCyWpjY3uHjVUcwNkNy-8" style="edgeStyle=orthogonalEdgeStyle;rounded=0;orthogonalLoop=1;jettySize=auto;html=1;exitX=1;exitY=0.5;exitDx=0;exitDy=0;entryX=0;entryY=0.5;entryDx=0;entryDy=0;" edge="1" parent="1" source="LFCyWpjY3uHjVUcwNkNy-9" target="LFCyWpjY3uHjVUcwNkNy-15">
          <mxGeometry relative="1" as="geometry" />
        </mxCell>
        <mxCell id="LFCyWpjY3uHjVUcwNkNy-9" value="Is the first member a bool ?" style="rhombus;whiteSpace=wrap;html=1;" vertex="1" parent="1">
          <mxGeometry x="145" y="300" width="80" height="80" as="geometry" />
        </mxCell>
        <mxCell id="LFCyWpjY3uHjVUcwNkNy-10" style="edgeStyle=orthogonalEdgeStyle;rounded=0;orthogonalLoop=1;jettySize=auto;html=1;exitX=1;exitY=0.5;exitDx=0;exitDy=0;entryX=0;entryY=0.5;entryDx=0;entryDy=0;" edge="1" parent="1" source="LFCyWpjY3uHjVUcwNkNy-12" target="LFCyWpjY3uHjVUcwNkNy-41">
          <mxGeometry relative="1" as="geometry" />
        </mxCell>
        <mxCell id="LFCyWpjY3uHjVUcwNkNy-11" style="edgeStyle=orthogonalEdgeStyle;rounded=0;orthogonalLoop=1;jettySize=auto;html=1;exitX=0.5;exitY=1;exitDx=0;exitDy=0;entryX=0.5;entryY=0;entryDx=0;entryDy=0;" edge="1" parent="1" source="LFCyWpjY3uHjVUcwNkNy-12" target="LFCyWpjY3uHjVUcwNkNy-45">
          <mxGeometry relative="1" as="geometry" />
        </mxCell>
        <mxCell id="LFCyWpjY3uHjVUcwNkNy-12" value="Is the second member a bool ?" style="rhombus;whiteSpace=wrap;html=1;" vertex="1" parent="1">
          <mxGeometry x="145" y="420" width="80" height="80" as="geometry" />
        </mxCell>
        <mxCell id="LFCyWpjY3uHjVUcwNkNy-13" value="No" style="text;html=1;align=center;verticalAlign=middle;whiteSpace=wrap;rounded=0;" vertex="1" parent="1">
          <mxGeometry x="140" y="380" width="60" height="30" as="geometry" />
        </mxCell>
        <mxCell id="LFCyWpjY3uHjVUcwNkNy-14" style="edgeStyle=orthogonalEdgeStyle;rounded=0;orthogonalLoop=1;jettySize=auto;html=1;exitX=0.5;exitY=1;exitDx=0;exitDy=0;entryX=0.5;entryY=0;entryDx=0;entryDy=0;" edge="1" parent="1" source="LFCyWpjY3uHjVUcwNkNy-15" target="LFCyWpjY3uHjVUcwNkNy-19">
          <mxGeometry relative="1" as="geometry" />
        </mxCell>
        <mxCell id="LFCyWpjY3uHjVUcwNkNy-15" value="EvaluateMembers&lt;div&gt;(firstMember)&lt;/div&gt;" style="rounded=1;whiteSpace=wrap;html=1;" vertex="1" parent="1">
          <mxGeometry x="480" y="320" width="125" height="40" as="geometry" />
        </mxCell>
        <mxCell id="LFCyWpjY3uHjVUcwNkNy-16" value="Yes" style="text;html=1;align=center;verticalAlign=middle;whiteSpace=wrap;rounded=0;" vertex="1" parent="1">
          <mxGeometry x="225" y="310" width="60" height="30" as="geometry" />
        </mxCell>
        <mxCell id="LFCyWpjY3uHjVUcwNkNy-17" style="edgeStyle=orthogonalEdgeStyle;rounded=0;orthogonalLoop=1;jettySize=auto;html=1;exitX=0.5;exitY=1;exitDx=0;exitDy=0;entryX=0.5;entryY=0;entryDx=0;entryDy=0;" edge="1" parent="1" source="LFCyWpjY3uHjVUcwNkNy-19" target="LFCyWpjY3uHjVUcwNkNy-21">
          <mxGeometry relative="1" as="geometry" />
        </mxCell>
        <mxCell id="LFCyWpjY3uHjVUcwNkNy-18" style="edgeStyle=orthogonalEdgeStyle;rounded=0;orthogonalLoop=1;jettySize=auto;html=1;exitX=1;exitY=0.5;exitDx=0;exitDy=0;entryX=0;entryY=0.5;entryDx=0;entryDy=0;" edge="1" parent="1" source="LFCyWpjY3uHjVUcwNkNy-19" target="LFCyWpjY3uHjVUcwNkNy-24">
          <mxGeometry relative="1" as="geometry" />
        </mxCell>
        <mxCell id="LFCyWpjY3uHjVUcwNkNy-19" value="Does the member exist in data holder ?" style="rhombus;whiteSpace=wrap;html=1;" vertex="1" parent="1">
          <mxGeometry x="468.75" y="420" width="147.5" height="80" as="geometry" />
        </mxCell>
        <mxCell id="LFCyWpjY3uHjVUcwNkNy-20" style="edgeStyle=orthogonalEdgeStyle;rounded=0;orthogonalLoop=1;jettySize=auto;html=1;exitX=0.5;exitY=1;exitDx=0;exitDy=0;entryX=0.5;entryY=0;entryDx=0;entryDy=0;" edge="1" parent="1" source="LFCyWpjY3uHjVUcwNkNy-21" target="LFCyWpjY3uHjVUcwNkNy-54">
          <mxGeometry relative="1" as="geometry" />
        </mxCell>
        <mxCell id="LFCyWpjY3uHjVUcwNkNy-21" value="return false" style="rounded=1;whiteSpace=wrap;html=1;" vertex="1" parent="1">
          <mxGeometry x="480" y="760" width="125" height="40" as="geometry" />
        </mxCell>
        <mxCell id="LFCyWpjY3uHjVUcwNkNy-22" value="No" style="text;html=1;align=center;verticalAlign=middle;whiteSpace=wrap;rounded=0;" vertex="1" parent="1">
          <mxGeometry x="490" y="500" width="60" height="30" as="geometry" />
        </mxCell>
        <mxCell id="LFCyWpjY3uHjVUcwNkNy-23" style="edgeStyle=orthogonalEdgeStyle;rounded=0;orthogonalLoop=1;jettySize=auto;html=1;exitX=0.5;exitY=1;exitDx=0;exitDy=0;entryX=0.5;entryY=0;entryDx=0;entryDy=0;" edge="1" parent="1" source="LFCyWpjY3uHjVUcwNkNy-24" target="LFCyWpjY3uHjVUcwNkNy-28">
          <mxGeometry relative="1" as="geometry" />
        </mxCell>
        <mxCell id="LFCyWpjY3uHjVUcwNkNy-24" value="PersistentDataHolder.&lt;div&gt;GetData(member)&lt;/div&gt;" style="rounded=1;whiteSpace=wrap;html=1;" vertex="1" parent="1">
          <mxGeometry x="690" y="440" width="125" height="40" as="geometry" />
        </mxCell>
        <mxCell id="LFCyWpjY3uHjVUcwNkNy-25" value="Yes" style="text;html=1;align=center;verticalAlign=middle;whiteSpace=wrap;rounded=0;" vertex="1" parent="1">
          <mxGeometry x="605" y="430" width="60" height="30" as="geometry" />
        </mxCell>
        <mxCell id="LFCyWpjY3uHjVUcwNkNy-26" style="edgeStyle=orthogonalEdgeStyle;rounded=0;orthogonalLoop=1;jettySize=auto;html=1;exitX=0.5;exitY=1;exitDx=0;exitDy=0;entryX=0.5;entryY=0;entryDx=0;entryDy=0;" edge="1" parent="1" source="LFCyWpjY3uHjVUcwNkNy-28" target="LFCyWpjY3uHjVUcwNkNy-31">
          <mxGeometry relative="1" as="geometry" />
        </mxCell>
        <mxCell id="LFCyWpjY3uHjVUcwNkNy-27" style="edgeStyle=orthogonalEdgeStyle;rounded=0;orthogonalLoop=1;jettySize=auto;html=1;exitX=1;exitY=0.5;exitDx=0;exitDy=0;entryX=0;entryY=0.5;entryDx=0;entryDy=0;" edge="1" parent="1" source="LFCyWpjY3uHjVUcwNkNy-28" target="LFCyWpjY3uHjVUcwNkNy-35">
          <mxGeometry relative="1" as="geometry" />
        </mxCell>
        <mxCell id="LFCyWpjY3uHjVUcwNkNy-28" value="Condition is &#39;Equal&#39; ?" style="rhombus;whiteSpace=wrap;html=1;" vertex="1" parent="1">
          <mxGeometry x="712.5" y="525" width="80" height="80" as="geometry" />
        </mxCell>
        <mxCell id="LFCyWpjY3uHjVUcwNkNy-29" style="edgeStyle=orthogonalEdgeStyle;rounded=0;orthogonalLoop=1;jettySize=auto;html=1;exitX=0.5;exitY=1;exitDx=0;exitDy=0;entryX=1;entryY=0.5;entryDx=0;entryDy=0;" edge="1" parent="1" source="LFCyWpjY3uHjVUcwNkNy-31" target="LFCyWpjY3uHjVUcwNkNy-21">
          <mxGeometry relative="1" as="geometry" />
        </mxCell>
        <mxCell id="LFCyWpjY3uHjVUcwNkNy-30" style="edgeStyle=orthogonalEdgeStyle;rounded=0;orthogonalLoop=1;jettySize=auto;html=1;exitX=1;exitY=0.5;exitDx=0;exitDy=0;entryX=0;entryY=0.5;entryDx=0;entryDy=0;" edge="1" parent="1" source="LFCyWpjY3uHjVUcwNkNy-31" target="LFCyWpjY3uHjVUcwNkNy-37">
          <mxGeometry relative="1" as="geometry" />
        </mxCell>
        <mxCell id="LFCyWpjY3uHjVUcwNkNy-31" value="Condition is &#39;NotEqual&#39; ?" style="rhombus;whiteSpace=wrap;html=1;" vertex="1" parent="1">
          <mxGeometry x="712.5" y="650" width="80" height="80" as="geometry" />
        </mxCell>
        <mxCell id="LFCyWpjY3uHjVUcwNkNy-32" value="No" style="text;html=1;align=center;verticalAlign=middle;whiteSpace=wrap;rounded=0;" vertex="1" parent="1">
          <mxGeometry x="710" y="605" width="60" height="30" as="geometry" />
        </mxCell>
        <mxCell id="LFCyWpjY3uHjVUcwNkNy-33" value="No" style="text;html=1;align=center;verticalAlign=middle;whiteSpace=wrap;rounded=0;" vertex="1" parent="1">
          <mxGeometry x="710" y="730" width="60" height="30" as="geometry" />
        </mxCell>
        <mxCell id="LFCyWpjY3uHjVUcwNkNy-34" style="edgeStyle=orthogonalEdgeStyle;rounded=0;orthogonalLoop=1;jettySize=auto;html=1;exitX=1;exitY=0.5;exitDx=0;exitDy=0;entryX=1;entryY=0.5;entryDx=0;entryDy=0;" edge="1" parent="1" source="LFCyWpjY3uHjVUcwNkNy-35" target="LFCyWpjY3uHjVUcwNkNy-54">
          <mxGeometry relative="1" as="geometry" />
        </mxCell>
        <mxCell id="LFCyWpjY3uHjVUcwNkNy-35" value="return firstMember == secondMember" style="rounded=1;whiteSpace=wrap;html=1;" vertex="1" parent="1">
          <mxGeometry x="860" y="545" width="125" height="40" as="geometry" />
        </mxCell>
        <mxCell id="LFCyWpjY3uHjVUcwNkNy-36" style="edgeStyle=orthogonalEdgeStyle;rounded=0;orthogonalLoop=1;jettySize=auto;html=1;exitX=0.5;exitY=1;exitDx=0;exitDy=0;entryX=1;entryY=0.5;entryDx=0;entryDy=0;" edge="1" parent="1" source="LFCyWpjY3uHjVUcwNkNy-37" target="LFCyWpjY3uHjVUcwNkNy-54">
          <mxGeometry relative="1" as="geometry" />
        </mxCell>
        <mxCell id="LFCyWpjY3uHjVUcwNkNy-37" value="return firstMember != secondMember" style="rounded=1;whiteSpace=wrap;html=1;" vertex="1" parent="1">
          <mxGeometry x="860" y="670" width="125" height="40" as="geometry" />
        </mxCell>
        <mxCell id="LFCyWpjY3uHjVUcwNkNy-38" value="Yes" style="text;html=1;align=center;verticalAlign=middle;whiteSpace=wrap;rounded=0;" vertex="1" parent="1">
          <mxGeometry x="780" y="540" width="60" height="30" as="geometry" />
        </mxCell>
        <mxCell id="LFCyWpjY3uHjVUcwNkNy-39" value="Yes" style="text;html=1;align=center;verticalAlign=middle;whiteSpace=wrap;rounded=0;" vertex="1" parent="1">
          <mxGeometry x="780" y="660" width="60" height="30" as="geometry" />
        </mxCell>
        <mxCell id="LFCyWpjY3uHjVUcwNkNy-40" style="edgeStyle=orthogonalEdgeStyle;rounded=0;orthogonalLoop=1;jettySize=auto;html=1;exitX=1;exitY=0.5;exitDx=0;exitDy=0;entryX=0;entryY=0.5;entryDx=0;entryDy=0;" edge="1" parent="1" source="LFCyWpjY3uHjVUcwNkNy-41" target="LFCyWpjY3uHjVUcwNkNy-19">
          <mxGeometry relative="1" as="geometry" />
        </mxCell>
        <mxCell id="LFCyWpjY3uHjVUcwNkNy-41" value="EvaluateMembers&lt;div&gt;(secondMember)&lt;/div&gt;" style="rounded=1;whiteSpace=wrap;html=1;" vertex="1" parent="1">
          <mxGeometry x="289" y="440" width="125" height="40" as="geometry" />
        </mxCell>
        <mxCell id="LFCyWpjY3uHjVUcwNkNy-42" value="Yes" style="text;html=1;align=center;verticalAlign=middle;whiteSpace=wrap;rounded=0;" vertex="1" parent="1">
          <mxGeometry x="215" y="430" width="60" height="30" as="geometry" />
        </mxCell>
        <mxCell id="LFCyWpjY3uHjVUcwNkNy-43" style="edgeStyle=orthogonalEdgeStyle;rounded=0;orthogonalLoop=1;jettySize=auto;html=1;exitX=1;exitY=0.5;exitDx=0;exitDy=0;entryX=0;entryY=0.5;entryDx=0;entryDy=0;" edge="1" parent="1" source="LFCyWpjY3uHjVUcwNkNy-45" target="LFCyWpjY3uHjVUcwNkNy-47">
          <mxGeometry relative="1" as="geometry" />
        </mxCell>
        <mxCell id="LFCyWpjY3uHjVUcwNkNy-44" style="edgeStyle=orthogonalEdgeStyle;rounded=0;orthogonalLoop=1;jettySize=auto;html=1;exitX=0.5;exitY=1;exitDx=0;exitDy=0;entryX=0;entryY=0.5;entryDx=0;entryDy=0;" edge="1" parent="1" source="LFCyWpjY3uHjVUcwNkNy-45" target="LFCyWpjY3uHjVUcwNkNy-21">
          <mxGeometry relative="1" as="geometry" />
        </mxCell>
        <mxCell id="LFCyWpjY3uHjVUcwNkNy-45" value="Do both members exist in data holder ?" style="rhombus;whiteSpace=wrap;html=1;" vertex="1" parent="1">
          <mxGeometry x="107.5" y="545" width="155" height="80" as="geometry" />
        </mxCell>
        <mxCell id="LFCyWpjY3uHjVUcwNkNy-46" style="edgeStyle=orthogonalEdgeStyle;rounded=0;orthogonalLoop=1;jettySize=auto;html=1;exitX=0.5;exitY=1;exitDx=0;exitDy=0;entryX=0.5;entryY=0;entryDx=0;entryDy=0;" edge="1" parent="1" source="LFCyWpjY3uHjVUcwNkNy-47" target="LFCyWpjY3uHjVUcwNkNy-49">
          <mxGeometry relative="1" as="geometry" />
        </mxCell>
        <mxCell id="LFCyWpjY3uHjVUcwNkNy-47" value="PersistentDataHolder.&lt;div&gt;GetData(firstMember)&lt;/div&gt;" style="rounded=1;whiteSpace=wrap;html=1;" vertex="1" parent="1">
          <mxGeometry x="321.25" y="565" width="147.5" height="40" as="geometry" />
        </mxCell>
        <mxCell id="LFCyWpjY3uHjVUcwNkNy-48" style="edgeStyle=orthogonalEdgeStyle;rounded=0;orthogonalLoop=1;jettySize=auto;html=1;exitX=1;exitY=0.5;exitDx=0;exitDy=0;entryX=0;entryY=0.5;entryDx=0;entryDy=0;" edge="1" parent="1" source="LFCyWpjY3uHjVUcwNkNy-49" target="LFCyWpjY3uHjVUcwNkNy-28">
          <mxGeometry relative="1" as="geometry" />
        </mxCell>
        <mxCell id="LFCyWpjY3uHjVUcwNkNy-49" value="PersistentDataHolder.&lt;div&gt;GetData(secondMember)&lt;/div&gt;" style="rounded=1;whiteSpace=wrap;html=1;" vertex="1" parent="1">
          <mxGeometry x="316.25" y="640" width="157.5" height="40" as="geometry" />
        </mxCell>
        <mxCell id="LFCyWpjY3uHjVUcwNkNy-50" value="Yes" style="text;html=1;align=center;verticalAlign=middle;whiteSpace=wrap;rounded=0;" vertex="1" parent="1">
          <mxGeometry x="252.5" y="555" width="60" height="30" as="geometry" />
        </mxCell>
        <mxCell id="LFCyWpjY3uHjVUcwNkNy-51" value="No" style="text;html=1;align=center;verticalAlign=middle;whiteSpace=wrap;rounded=0;" vertex="1" parent="1">
          <mxGeometry x="140" y="500" width="60" height="30" as="geometry" />
        </mxCell>
        <mxCell id="LFCyWpjY3uHjVUcwNkNy-52" value="No" style="text;html=1;align=center;verticalAlign=middle;whiteSpace=wrap;rounded=0;" vertex="1" parent="1">
          <mxGeometry x="140" y="625" width="60" height="30" as="geometry" />
        </mxCell>
        <mxCell id="LFCyWpjY3uHjVUcwNkNy-53" style="edgeStyle=orthogonalEdgeStyle;rounded=0;orthogonalLoop=1;jettySize=auto;html=1;exitX=0.5;exitY=1;exitDx=0;exitDy=0;entryX=0.5;entryY=0;entryDx=0;entryDy=0;" edge="1" parent="1" source="LFCyWpjY3uHjVUcwNkNy-54" target="LFCyWpjY3uHjVUcwNkNy-57">
          <mxGeometry relative="1" as="geometry" />
        </mxCell>
        <mxCell id="LFCyWpjY3uHjVUcwNkNy-54" value="SwitchCondition.&lt;div&gt;DefineSequences(result)&lt;/div&gt;" style="rounded=1;whiteSpace=wrap;html=1;" vertex="1" parent="1">
          <mxGeometry x="452.5" y="880" width="180" height="40" as="geometry" />
        </mxCell>
        <mxCell id="LFCyWpjY3uHjVUcwNkNy-55" style="edgeStyle=orthogonalEdgeStyle;rounded=0;orthogonalLoop=1;jettySize=auto;html=1;exitX=0.5;exitY=1;exitDx=0;exitDy=0;entryX=0.5;entryY=0;entryDx=0;entryDy=0;" edge="1" parent="1" source="LFCyWpjY3uHjVUcwNkNy-57" target="LFCyWpjY3uHjVUcwNkNy-61">
          <mxGeometry relative="1" as="geometry" />
        </mxCell>
        <mxCell id="LFCyWpjY3uHjVUcwNkNy-56" style="edgeStyle=orthogonalEdgeStyle;rounded=0;orthogonalLoop=1;jettySize=auto;html=1;exitX=1;exitY=0.5;exitDx=0;exitDy=0;entryX=0;entryY=0.5;entryDx=0;entryDy=0;" edge="1" parent="1" source="LFCyWpjY3uHjVUcwNkNy-57" target="LFCyWpjY3uHjVUcwNkNy-59">
          <mxGeometry relative="1" as="geometry" />
        </mxCell>
        <mxCell id="LFCyWpjY3uHjVUcwNkNy-57" value="result == true ?" style="rhombus;whiteSpace=wrap;html=1;" vertex="1" parent="1">
          <mxGeometry x="502.5" y="970" width="80" height="80" as="geometry" />
        </mxCell>
        <mxCell id="LFCyWpjY3uHjVUcwNkNy-58" style="edgeStyle=orthogonalEdgeStyle;rounded=0;orthogonalLoop=1;jettySize=auto;html=1;exitX=0.5;exitY=1;exitDx=0;exitDy=0;entryX=0.5;entryY=0;entryDx=0;entryDy=0;" edge="1" parent="1" source="LFCyWpjY3uHjVUcwNkNy-59" target="LFCyWpjY3uHjVUcwNkNy-64">
          <mxGeometry relative="1" as="geometry" />
        </mxCell>
        <mxCell id="LFCyWpjY3uHjVUcwNkNy-59" value="EventsRunner.&lt;div&gt;RunEvents(SequenceWhenTrue)&lt;/div&gt;" style="rounded=1;whiteSpace=wrap;html=1;" vertex="1" parent="1">
          <mxGeometry x="690" y="990" width="213" height="40" as="geometry" />
        </mxCell>
        <mxCell id="LFCyWpjY3uHjVUcwNkNy-60" style="edgeStyle=orthogonalEdgeStyle;rounded=0;orthogonalLoop=1;jettySize=auto;html=1;exitX=1;exitY=0.5;exitDx=0;exitDy=0;entryX=0;entryY=0.5;entryDx=0;entryDy=0;" edge="1" parent="1" source="LFCyWpjY3uHjVUcwNkNy-61" target="LFCyWpjY3uHjVUcwNkNy-64">
          <mxGeometry relative="1" as="geometry" />
        </mxCell>
        <mxCell id="LFCyWpjY3uHjVUcwNkNy-61" value="EventsRunner.&lt;div&gt;RunEvents(SequenceWhenFalse)&lt;/div&gt;" style="rounded=1;whiteSpace=wrap;html=1;" vertex="1" parent="1">
          <mxGeometry x="436" y="1100" width="213" height="40" as="geometry" />
        </mxCell>
        <mxCell id="LFCyWpjY3uHjVUcwNkNy-62" value="Yes" style="text;html=1;align=center;verticalAlign=middle;whiteSpace=wrap;rounded=0;" vertex="1" parent="1">
          <mxGeometry x="582.5" y="980" width="60" height="30" as="geometry" />
        </mxCell>
        <mxCell id="LFCyWpjY3uHjVUcwNkNy-63" value="No" style="text;html=1;align=center;verticalAlign=middle;whiteSpace=wrap;rounded=0;" vertex="1" parent="1">
          <mxGeometry x="490" y="1040" width="60" height="30" as="geometry" />
        </mxCell>
        <mxCell id="LFCyWpjY3uHjVUcwNkNy-64" value="SwitchCondition.Conclude()" style="rounded=1;whiteSpace=wrap;html=1;" vertex="1" parent="1">
          <mxGeometry x="717.75" y="1100" width="157.5" height="40" as="geometry" />
        </mxCell>
      </root>
    </mxGraphModel>
  </diagram>
</mxfile>
